<?xml version="1.0" standalone="no"?>
<!DOCTYPE svg PUBLIC "-//W3C//DTD SVG 20010904//EN"
 "http://www.w3.org/TR/2001/REC-SVG-20010904/DTD/svg10.dtd">
<svg version="1.0" xmlns="http://www.w3.org/2000/svg"
 width="256.000000pt" height="256.000000pt" viewBox="0 0 256.000000 256.000000"
 preserveAspectRatio="xMidYMid meet">
<metadata>
Created by potrace 1.11, written by Peter Selinger 2001-2013
</metadata>
<g transform="translate(0.000000,256.000000) scale(0.100000,-0.100000)"
fill="#000000" stroke="none">
<path d="M1449 2459 c5 -6 7 -18 4 -26 -3 -8 -1 -18 5 -22 10 -6 18 -32 27
-86 2 -11 4 -22 5 -25 1 -3 2 -9 1 -14 -1 -4 3 -13 8 -20 5 -6 11 -23 13 -36
2 -14 7 -31 11 -37 5 -7 6 -17 2 -22 -3 -5 -1 -12 5 -16 6 -4 8 -11 4 -16 -3
-5 -1 -16 5 -22 5 -7 12 -28 14 -47 3 -19 8 -54 12 -77 l8 -43 -61 0 c-52 0
-60 -2 -55 -16 3 -9 9 -11 12 -6 3 5 29 11 58 13 l52 4 20 -82 c12 -45 21 -87
21 -92 0 -6 -28 -12 -62 -14 l-63 -3 66 -2 66 -2 22 -82 c12 -46 24 -91 27
-100 5 -16 -4 -18 -98 -18 -68 0 -108 4 -116 12 -9 9 -12 9 -12 0 0 -6 -23
-12 -57 -15 -35 -2 -15 -4 49 -5 74 -1 108 -6 111 -14 4 -10 6 -10 6 0 1 7 17
12 44 12 81 0 82 -1 111 -116 15 -58 24 -109 21 -114 -3 -4 -2 -10 3 -12 12
-5 73 -241 64 -250 -4 -4 -164 16 -357 43 -192 27 -359 48 -370 46 -11 -1 10
-6 47 -11 37 -4 70 -12 74 -17 3 -5 13 -8 22 -5 10 3 58 -1 107 -9 50 -8 108
-17 130 -19 22 -2 77 -10 122 -16 71 -11 82 -15 86 -34 4 -20 4 -20 6 -1 1 20
4 20 74 11 l73 -9 36 -144 c21 -83 32 -146 26 -149 -15 -9 -249 39 -265 54 -7
7 -13 9 -13 4 0 -12 -215 32 -235 48 -8 7 -15 8 -15 3 0 -14 -189 30 -199 46
-6 9 -10 10 -12 2 -3 -8 -26 -7 -84 4 -44 9 -87 19 -95 22 -8 3 -26 7 -40 8
-60 6 -150 28 -150 37 0 5 -5 6 -10 3 -6 -3 -69 6 -141 20 -72 15 -133 25
-135 22 -2 -2 76 -20 173 -41 97 -20 181 -42 185 -49 5 -7 8 -8 8 -1 0 7 28 5
83 -8 45 -10 96 -20 114 -24 18 -3 106 -21 195 -40 90 -19 228 -48 308 -65
195 -40 182 -35 176 -72 l-5 -32 11 33 c8 22 16 31 27 28 9 -3 43 -10 76 -16
l60 -12 40 -146 c21 -81 41 -153 43 -159 2 -7 -6 -17 -19 -21 l-23 -9 26 -6
c23 -6 28 -17 52 -112 14 -57 26 -111 26 -119 0 -22 -251 64 -261 90 -7 18 -8
18 -8 0 -1 -10 -6 -16 -13 -14 -7 3 -70 24 -140 47 -96 32 -128 47 -128 59 0
14 -2 14 -9 3 -7 -12 -53 0 -253 66 -133 44 -247 78 -253 75 -6 -4 -6 -7 0 -8
6 -2 247 -80 537 -174 360 -117 533 -168 543 -162 24 13 448 724 449 752 0 17
-159 265 -512 795 -283 424 -522 778 -533 788 -10 9 -15 12 -10 6z"/>
</g>
</svg>
