<?xml version="1.0" standalone="no"?>
<!DOCTYPE svg PUBLIC "-//W3C//DTD SVG 20010904//EN"
 "http://www.w3.org/TR/2001/REC-SVG-20010904/DTD/svg10.dtd">
<svg version="1.0" xmlns="http://www.w3.org/2000/svg"
 width="256.000000pt" height="256.000000pt" viewBox="0 0 256.000000 256.000000"
 preserveAspectRatio="xMidYMid meet">
<metadata>
Created by potrace 1.11, written by Peter Selinger 2001-2013
</metadata>
<g transform="translate(0.000000,256.000000) scale(0.100000,-0.100000)"
fill="#000000" stroke="none">
<path d="M0 1280 l0 -1280 1280 0 1280 0 0 1280 0 1280 -1280 0 -1280 0 0
-1280z m1992 385 c353 -530 512 -778 512 -795 -1 -28 -425 -739 -449 -752 -10
-6 -183 45 -543 162 -290 94 -531 172 -537 174 -6 1 -6 4 0 8 6 3 120 -31 253
-75 200 -66 246 -78 253 -66 7 11 9 11 9 -3 0 -12 32 -27 128 -59 70 -23 133
-44 140 -47 7 -2 12 4 13 14 0 18 1 18 8 0 10 -26 261 -112 261 -90 0 8 -12
62 -26 119 -24 95 -29 106 -52 112 l-26 6 23 9 c13 4 21 14 19 21 -2 6 -22 78
-43 159 l-40 146 -60 12 c-33 6 -67 13 -76 16 -11 3 -19 -6 -27 -28 l-11 -33
5 32 c6 37 19 32 -176 72 -80 17 -218 46 -308 65 -89 19 -177 37 -195 40 -18
4 -69 14 -114 24 -55 13 -83 15 -83 8 0 -7 -3 -6 -8 1 -4 7 -88 29 -185 49
-97 21 -175 39 -173 41 2 3 63 -7 135 -22 72 -14 135 -23 141 -20 5 3 10 2 10
-3 0 -9 90 -31 150 -37 14 -1 32 -5 40 -8 8 -3 51 -13 95 -22 58 -11 81 -12
84 -4 2 8 6 7 12 -2 10 -16 199 -60 199 -46 0 5 7 4 15 -3 20 -16 235 -60 235
-48 0 5 6 3 13 -4 16 -15 250 -63 265 -54 6 3 -5 66 -26 149 l-36 144 -73 9
c-70 9 -73 9 -74 -11 -2 -19 -2 -19 -6 1 -4 19 -15 23 -86 34 -45 6 -100 14
-122 16 -22 2 -80 11 -130 19 -49 8 -97 12 -107 9 -9 -3 -19 0 -22 5 -4 5 -37
13 -74 17 -37 5 -58 10 -47 11 11 2 178 -19 370 -46 193 -27 353 -47 357 -43
9 9 -52 245 -64 250 -5 2 -6 8 -3 12 3 5 -6 56 -21 114 -29 115 -30 116 -111
116 -27 0 -43 -5 -44 -12 0 -10 -2 -10 -6 0 -3 8 -37 13 -111 14 -64 1 -84 3
-49 5 34 3 57 9 57 15 0 9 3 9 12 0 8 -8 48 -12 116 -12 94 0 103 2 98 18 -3
9 -15 54 -27 100 l-22 82 -66 2 -66 2 63 3 c34 2 62 8 62 14 0 5 -9 47 -21 92
l-20 82 -52 -4 c-29 -2 -55 -8 -58 -13 -3 -5 -9 -3 -12 6 -5 14 3 16 55 16
l61 0 -8 43 c-4 23 -9 58 -12 77 -2 19 -9 40 -14 47 -6 6 -8 17 -5 22 4 5 2
12 -4 16 -6 4 -8 11 -5 16 4 5 3 15 -2 22 -4 6 -9 23 -11 37 -2 13 -8 30 -13
36 -5 7 -9 16 -8 20 1 5 0 11 -1 14 -1 3 -3 14 -5 25 -9 54 -17 80 -27 86 -6
4 -8 14 -5 22 3 8 1 20 -4 26 -5 6 0 3 10 -6 11 -10 250 -364 533 -788z"/>
</g>
</svg>
