<?xml version="1.0" standalone="no"?>
<!DOCTYPE svg PUBLIC "-//W3C//DTD SVG 20010904//EN"
 "http://www.w3.org/TR/2001/REC-SVG-20010904/DTD/svg10.dtd">
<svg version="1.0" xmlns="http://www.w3.org/2000/svg"
 width="167.000000pt" height="150.000000pt" viewBox="0 0 167.000000 150.000000"
 preserveAspectRatio="xMidYMid meet">
<metadata>
Created by potrace 1.11, written by Peter Selinger 2001-2013
</metadata>
<g transform="translate(0.000000,150.000000) scale(0.100000,-0.100000)"
fill="#000000" stroke="none">
<path d="M331 1219 c-33 -22 -61 -43 -61 -45 0 -3 5 -14 10 -25 6 -10 22 -58
36 -106 14 -48 39 -114 56 -146 24 -44 28 -61 20 -69 -19 -19 -73 41 -115 127
-20 41 -37 78 -37 83 0 5 -8 16 -19 26 -15 14 -20 14 -29 3 -14 -16 -42 -82
-42 -97 0 -35 177 -184 213 -179 29 4 37 -4 65 -65 18 -39 43 -74 66 -91 45
-34 45 -52 2 -138 l-35 -68 25 -10 c14 -5 28 -9 32 -9 4 0 7 -26 8 -57 0 -34
5 -58 12 -61 7 -2 12 -10 12 -17 0 -18 81 -89 90 -78 15 14 23 63 11 63 -6 0
-11 -10 -11 -22 0 -23 0 -23 -20 2 -11 14 -28 51 -39 83 -18 51 -18 59 -5 64
9 3 33 -4 54 -16 54 -30 205 -31 243 -1 48 38 74 20 51 -36 -7 -17 -10 -34 -7
-38 4 -3 1 -6 -5 -6 -7 0 -12 -9 -12 -21 0 -11 -3 -18 -8 -15 -4 2 -12 -7 -19
-20 -30 -64 54 -9 88 58 11 21 17 43 14 48 -3 5 -1 11 5 15 7 4 7 12 0 25 -14
27 -14 27 25 34 37 7 45 25 21 46 -35 28 -56 130 -27 130 8 0 82 -110 92 -136
3 -8 21 -2 52 16 l48 27 -77 59 c-104 80 -106 83 -62 136 19 23 39 57 45 73 8
23 16 29 33 27 35 -4 102 41 164 110 62 70 65 85 24 155 -26 43 -35 35 -73
-57 -15 -36 -36 -78 -48 -95 -25 -38 -79 -95 -88 -95 -21 0 -14 36 15 85 19
30 42 86 52 123 9 37 26 84 36 106 l20 38 -28 29 c-29 31 -111 75 -121 66 -3
-3 3 -26 12 -51 10 -25 18 -70 19 -99 0 -30 5 -52 10 -49 5 3 6 0 2 -6 -3 -6
-8 -32 -10 -59 -6 -63 -36 -131 -75 -167 -17 -17 -31 -26 -31 -21 0 5 -6 1
-12 -8 -7 -9 -25 -19 -39 -22 -25 -6 -27 -4 -31 29 l-4 36 42 0 c62 0 68 13
60 128 -3 53 -11 99 -16 100 -6 2 -10 20 -10 39 0 30 -2 34 -15 23 -13 -11
-15 -8 -15 19 0 17 -4 31 -10 31 -5 0 -10 -4 -10 -10 0 -5 -4 -10 -10 -10 -5
0 -10 10 -10 22 0 21 -3 20 -36 -14 -21 -21 -34 -41 -29 -48 5 -8 11 -6 20 6
11 16 15 13 39 -32 15 -27 34 -63 44 -79 9 -17 17 -35 18 -40 0 -6 7 -29 14
-53 15 -48 11 -58 -18 -43 -12 6 -46 11 -76 11 l-56 0 6 30 c8 39 -2 68 -18
52 -15 -15 -28 -15 -28 -1 0 6 -7 17 -15 26 -12 12 -19 12 -30 3 -8 -7 -22
-10 -30 -6 -9 3 -24 -3 -36 -15 -16 -16 -23 -18 -35 -9 -18 16 -29 -9 -20 -50
l5 -30 -55 0 c-30 0 -64 -5 -76 -11 -27 -14 -29 -10 -16 36 5 22 11 50 12 63
0 12 4 22 9 22 4 0 7 6 7 14 0 8 6 16 13 19 6 2 21 28 32 56 19 49 20 50 42
36 25 -16 103 -21 103 -6 0 6 -4 12 -9 15 -5 4 -8 14 -7 24 2 13 11 16 34 14
42 -4 41 9 -2 32 -32 17 -35 17 -60 1 -19 -13 -37 -16 -66 -11 -33 5 -40 3
-40 -10 0 -10 -5 -14 -15 -10 -11 4 -15 -1 -15 -18 0 -29 -10 -39 -27 -25 -10
9 -13 3 -13 -30 0 -26 -4 -40 -10 -36 -5 3 -10 5 -10 3 -1 -2 -3 -47 -6 -101
-7 -115 -1 -127 62 -127 41 0 57 -11 35 -24 -5 -3 -7 -15 -4 -26 6 -24 -3 -25
-48 -6 -76 33 -133 132 -139 247 -1 19 -1 39 0 44 1 6 1 22 0 37 -1 14 4 29
10 33 5 3 8 10 5 15 -3 5 1 26 10 46 8 20 15 40 15 45 0 18 -30 8 -89 -32z"/>
<path d="M1326 832 c-9 -11 -42 -31 -74 -46 -101 -48 -107 -52 -107 -60 0 -23
34 -28 103 -16 91 15 112 32 119 93 6 52 -9 63 -41 29z"/>
<path d="M135 793 c4 -27 13 -53 21 -59 17 -13 179 -38 193 -29 24 14 8 34
-37 49 -27 9 -73 32 -103 51 -74 47 -82 46 -74 -12z"/>
<path d="M303 434 c-3 -8 -11 -13 -19 -10 -7 3 -18 -1 -24 -9 -7 -8 -7 -14 -1
-17 6 -1 13 -57 16 -123 6 -136 9 -151 38 -183 41 -44 131 -20 141 38 3 14 5
27 6 30 1 3 2 23 3 44 1 23 8 41 16 44 10 3 13 -2 9 -22 -3 -14 -2 -26 1 -26
3 0 7 -15 8 -33 7 -107 33 -102 33 6 0 69 -3 87 -18 100 -45 41 -91 5 -99 -75
-6 -61 -22 -84 -49 -74 -14 6 -16 17 -11 79 4 40 12 76 19 82 14 11 19 24 25
71 8 56 -75 126 -94 78z"/>
<path d="M1140 437 c-42 -21 -47 -71 -16 -144 30 -72 36 -160 11 -169 -26 -10
-42 14 -47 71 -7 83 -52 118 -102 80 -11 -8 -16 -15 -11 -15 5 0 4 -5 -2 -11
-7 -7 -8 -20 -4 -33 4 -11 5 -32 1 -46 -8 -34 0 -82 14 -77 6 2 11 22 12 44 1
22 5 53 9 69 5 16 7 33 6 37 -1 5 4 7 11 5 8 -3 13 -23 13 -56 0 -29 3 -52 8
-52 4 0 7 -8 7 -18 0 -52 98 -72 137 -30 28 31 31 44 38 183 3 66 10 122 15
125 15 9 -7 33 -24 27 -9 -4 -15 -1 -13 6 3 17 -34 19 -63 4z"/>
</g>
</svg>
