<?xml version="1.0" standalone="no"?>
<!DOCTYPE svg PUBLIC "-//W3C//DTD SVG 20010904//EN"
 "http://www.w3.org/TR/2001/REC-SVG-20010904/DTD/svg10.dtd">
<svg version="1.0" xmlns="http://www.w3.org/2000/svg"
 width="167.000000pt" height="150.000000pt" viewBox="0 0 167.000000 150.000000"
 preserveAspectRatio="xMidYMid meet">
<metadata>
Created by potrace 1.11, written by Peter Selinger 2001-2013
</metadata>
<g transform="translate(0.000000,150.000000) scale(0.100000,-0.100000)"
fill="#000000" stroke="none">
<path d="M331 1219 c-33 -22 -61 -43 -61 -45 0 -3 5 -14 10 -25 6 -10 22 -58
36 -106 14 -48 39 -114 56 -146 24 -44 28 -61 20 -69 -19 -19 -73 41 -115 127
-20 41 -37 78 -37 83 0 5 -8 16 -19 26 -15 14 -20 14 -29 3 -14 -16 -42 -82
-42 -97 0 -35 177 -184 213 -179 29 4 37 -4 65 -65 18 -39 43 -74 66 -91 45
-34 45 -52 2 -138 -19 -37 -31 -69 -28 -71 4 -2 19 -6 33 -9 22 -6 25 -11 21
-37 -2 -17 3 -51 12 -75 18 -46 93 -123 106 -108 15 14 23 63 11 63 -6 0 -11
-10 -11 -22 0 -23 0 -23 -20 2 -23 30 -61 130 -54 142 8 13 32 9 66 -12 48
-29 204 -29 241 0 26 21 52 26 61 12 8 -13 -34 -118 -56 -142 -32 -35 -7 -46
31 -14 46 38 74 99 68 145 -5 36 -4 37 29 44 36 6 44 24 20 45 -35 28 -56 130
-27 130 8 0 82 -110 92 -136 3 -8 21 -2 52 16 l48 27 -77 59 c-104 80 -106 83
-62 136 19 23 39 57 45 73 8 23 16 29 33 27 13 -1 42 9 65 23 43 24 155 141
155 160 0 5 -12 34 -25 64 -31 65 -39 61 -80 -39 -15 -36 -36 -78 -48 -95 -25
-38 -79 -95 -88 -95 -21 0 -14 36 15 85 19 30 42 86 52 123 9 37 26 84 36 106
l20 38 -28 29 c-30 31 -111 75 -121 66 -3 -4 2 -25 12 -49 10 -25 20 -81 22
-133 7 -120 -17 -192 -81 -251 -38 -35 -92 -63 -101 -52 -1 2 -5 17 -8 35 -6
32 -6 32 40 35 28 2 50 9 56 19 12 19 -1 211 -14 203 -5 -3 -9 14 -9 37 0 36
-2 40 -15 29 -13 -11 -15 -8 -15 19 0 17 -4 31 -10 31 -5 0 -10 -4 -10 -10 0
-5 -4 -10 -10 -10 -5 0 -10 10 -10 22 0 21 -3 20 -37 -14 -20 -21 -34 -40 -30
-44 3 -4 13 -2 21 5 11 10 21 -1 54 -61 41 -76 80 -183 70 -194 -4 -3 -15 -1
-26 5 -12 6 -46 11 -76 11 l-56 0 6 30 c8 39 -2 68 -18 52 -15 -15 -28 -15
-28 -1 0 6 -7 17 -15 26 -12 12 -19 12 -30 3 -8 -7 -21 -10 -30 -7 -8 4 -17 2
-20 -4 -4 -5 -11 -7 -16 -4 -5 4 -9 -1 -9 -9 0 -19 -11 -21 -28 -4 -16 16 -26
-13 -18 -52 l5 -30 -55 0 c-30 0 -64 -5 -76 -11 -11 -6 -21 -9 -23 -7 -13 13
52 182 102 267 2 2 11 -3 21 -12 11 -10 35 -17 60 -17 39 0 54 11 33 24 -5 4
-8 14 -7 24 2 13 11 16 34 14 42 -4 41 9 -2 32 -32 17 -35 17 -60 1 -19 -13
-37 -16 -66 -11 -33 5 -40 3 -40 -10 0 -10 -5 -14 -15 -10 -11 4 -15 -1 -15
-18 0 -29 -10 -39 -27 -25 -10 9 -13 3 -13 -30 0 -23 -4 -40 -9 -37 -13 8 -26
-184 -14 -203 6 -10 28 -17 56 -19 46 -3 46 -3 40 -35 -8 -42 -6 -41 -47 -26
-119 43 -182 249 -126 409 11 30 19 58 20 63 0 17 -31 5 -89 -34z"/>
<path d="M1326 832 c-9 -11 -42 -31 -74 -46 -101 -48 -107 -52 -107 -60 0 -23
34 -28 103 -16 91 15 112 32 119 93 6 52 -9 63 -41 29z"/>
<path d="M135 793 c4 -27 13 -53 21 -59 17 -13 179 -38 193 -29 24 14 8 34
-37 49 -27 9 -73 32 -103 51 -74 47 -82 46 -74 -12z"/>
<path d="M303 434 c-3 -8 -11 -13 -19 -10 -7 3 -18 -1 -24 -9 -6 -8 -7 -14 -1
-17 5 -1 14 -65 18 -140 8 -124 12 -140 33 -163 29 -31 87 -34 120 -7 19 15
24 32 29 87 8 91 26 95 36 9 8 -75 13 -94 26 -94 5 0 9 38 9 83 0 69 -3 87
-18 100 -45 41 -91 5 -99 -75 -6 -60 -22 -84 -48 -74 -24 9 -19 97 10 166 31
75 31 91 -1 129 -28 33 -61 41 -71 15z"/>
<path d="M1140 437 c-42 -21 -47 -71 -16 -144 30 -72 36 -160 11 -169 -26 -10
-42 14 -47 71 -5 61 -28 95 -63 95 -41 0 -55 -29 -55 -118 0 -45 4 -82 9 -82
13 0 21 27 21 73 0 105 32 115 41 14 7 -84 25 -107 84 -107 31 0 47 6 65 25
21 23 25 39 33 163 4 75 12 138 17 140 18 7 -3 33 -21 27 -13 -4 -19 -2 -17 7
4 17 -32 21 -62 5z"/>
</g>
</svg>
