<?xml version="1.0" standalone="no"?>
<!DOCTYPE svg PUBLIC "-//W3C//DTD SVG 20010904//EN"
 "http://www.w3.org/TR/2001/REC-SVG-20010904/DTD/svg10.dtd">
<svg version="1.0" xmlns="http://www.w3.org/2000/svg"
 width="1604.000000pt" height="903.000000pt" viewBox="0 0 1604.000000 903.000000"
 preserveAspectRatio="xMidYMid meet">
<metadata>
Created by potrace 1.11, written by Peter Selinger 2001-2013
</metadata>
<g transform="translate(0.000000,903.000000) scale(0.100000,-0.100000)"
fill="#000000" stroke="none">
<path d="M3287 8973 c-4 -4 -5 -20 -2 -37 3 -17 10 -87 16 -156 6 -69 15 -168
19 -220 23 -260 29 -347 29 -485 1 -82 6 -167 11 -187 6 -21 15 -160 20 -310
5 -150 14 -403 19 -563 6 -159 13 -310 16 -335 7 -62 35 -670 44 -985 4 -143
10 -267 14 -275 12 -25 30 -363 30 -550 0 -190 -14 -385 -32 -440 -6 -20 -11
-109 -11 -210 l0 -176 -29 -46 c-17 -26 -72 -87 -123 -137 -51 -50 -113 -111
-138 -136 l-46 -45 -287 0 -287 0 -57 -30 c-46 -25 -68 -30 -122 -30 -48 0
-75 -5 -99 -20 -21 -13 -50 -20 -85 -20 -67 0 -197 -27 -218 -46 -10 -9 -37
-14 -75 -14 -75 0 -147 -22 -201 -60 -35 -25 -51 -30 -101 -30 -46 0 -75 -7
-124 -30 -40 -19 -79 -30 -106 -30 -24 0 -60 -7 -80 -16 -100 -43 -130 -60
-165 -91 -20 -18 -41 -33 -45 -33 -4 0 -34 -20 -67 -45 -33 -25 -76 -49 -95
-55 -23 -6 -52 -29 -85 -67 -88 -101 -99 -125 -105 -234 -4 -83 -3 -95 10 -88
22 11 99 34 224 64 61 15 119 33 130 41 12 7 63 24 113 38 51 13 96 27 101 30
5 3 24 8 43 11 19 3 48 15 64 25 64 41 148 79 232 105 49 15 99 31 113 36 14
5 84 23 155 40 110 26 142 30 205 24 131 -11 264 -39 345 -74 81 -34 547 -273
570 -291 6 -5 80 -44 164 -87 221 -112 216 -109 247 -141 16 -15 62 -48 102
-71 98 -59 325 -272 388 -365 14 -20 42 -55 64 -78 22 -24 57 -69 78 -101 72
-111 328 -453 358 -477 7 -7 14 -18 14 -26 0 -7 19 -36 43 -63 69 -81 123
-154 140 -187 9 -17 36 -55 60 -85 24 -30 61 -81 82 -114 21 -33 41 -62 45
-65 3 -3 64 -93 134 -200 132 -202 209 -315 419 -624 l38 -56 180 0 c207 0
200 -7 105 95 -31 33 -84 96 -119 139 -34 44 -89 113 -122 154 -33 40 -73 93
-90 116 -16 23 -57 74 -90 112 -33 39 -117 142 -187 230 -153 190 -298 366
-341 414 -18 19 -63 73 -102 121 -180 223 -225 277 -295 353 -42 44 -96 107
-120 139 -65 87 -429 450 -624 622 -37 33 -80 71 -95 85 -15 14 -73 63 -129
110 -55 47 -103 91 -106 97 -3 8 5 15 22 20 15 3 51 21 79 40 91 58 91 58 233
-34 40 -25 47 -27 33 -10 -9 12 -38 40 -64 62 -26 22 -50 45 -53 52 -6 15 122
76 149 70 11 -2 29 -8 39 -12 31 -13 -33 63 -68 82 -16 8 -58 38 -93 65 -60
47 -71 68 -37 68 9 0 14 6 11 12 -4 14 60 38 101 38 12 0 45 -11 72 -25 53
-27 105 -34 98 -13 -3 7 -33 32 -68 55 -35 24 -66 47 -69 51 -3 5 -77 55 -164
112 -149 99 -157 105 -138 120 10 8 25 32 32 53 10 27 22 40 46 49 20 7 33 19
35 32 2 15 12 22 38 26 26 4 34 9 32 23 -2 14 5 17 38 17 22 0 40 5 40 10 0
13 57 13 65 0 3 -6 41 -10 84 -10 44 0 97 -7 121 -15 49 -17 260 -20 375 -5
79 10 129 -4 140 -40 4 -13 12 -19 21 -16 14 6 19 -13 15 -65 -1 -18 5 -28 22
-36 40 -18 40 -47 16 -489 -7 -116 -9 -222 -6 -236 9 -36 270 -270 436 -391
25 -17 71 -54 104 -82 64 -54 80 -66 207 -148 97 -63 178 -104 268 -137 34
-12 60 -25 58 -28 -3 -2 1 -17 9 -32 11 -22 19 -26 40 -23 23 5 26 2 25 -24
-1 -5 -11 -7 -24 -5 -12 2 -28 -3 -35 -11 -16 -20 8 -43 58 -57 21 -5 46 -19
57 -31 10 -12 38 -32 61 -46 47 -27 141 -130 168 -183 10 -19 43 -73 75 -120
66 -99 117 -178 150 -235 13 -22 34 -50 47 -63 12 -13 23 -30 23 -38 0 -8 23
-57 52 -107 28 -51 76 -139 105 -196 29 -56 60 -113 68 -124 8 -12 15 -28 15
-36 0 -7 14 -36 30 -63 17 -26 30 -57 30 -67 0 -10 10 -30 21 -45 l21 -27 -23
-25 c-12 -13 -27 -24 -33 -24 -6 0 -29 -9 -50 -21 -49 -26 -130 -29 -171 -6
-52 28 -79 39 -114 44 -33 6 -34 5 -28 -23 20 -88 38 -160 62 -249 15 -55 32
-126 38 -157 l10 -58 337 0 c299 0 339 2 344 16 13 33 6 201 -10 250 -12 36
-18 110 -23 274 -4 124 -8 208 -9 188 -1 -21 -5 -38 -10 -38 -8 0 -26 38 -37
80 -28 100 -278 695 -298 707 -5 3 -17 24 -27 47 -9 22 -31 70 -48 106 -17 36
-33 76 -35 90 -15 77 -95 242 -169 344 -15 21 -28 45 -28 52 0 7 23 21 50 31
49 17 50 18 50 60 0 24 3 43 8 43 4 0 74 1 156 2 177 2 196 4 196 28 0 9 32
53 71 96 88 98 129 179 129 252 0 37 -3 51 -11 46 -10 -6 -56 -13 -99 -16 -8
0 -48 1 -87 2 -76 3 -97 -5 -108 -41 -5 -15 -16 -19 -55 -19 -27 0 -52 5 -55
10 -3 6 -15 10 -26 10 -10 0 -19 3 -19 8 0 8 -43 28 -82 38 -16 3 -28 10 -28
14 0 5 -9 11 -19 15 -11 3 -18 12 -15 19 3 7 -2 16 -11 20 -11 4 -14 12 -10
27 5 13 2 25 -6 29 -7 5 -13 31 -14 60 -1 28 -7 56 -13 62 -15 15 -16 58 -1
58 7 0 9 9 5 23 -13 44 -15 77 -4 77 6 0 8 9 5 20 -3 10 1 24 8 30 10 8 11 18
5 36 -8 20 -6 25 13 29 13 4 28 19 34 36 6 16 19 29 28 29 11 0 15 5 11 15 -3
8 -1 15 3 15 5 0 19 19 30 43 12 24 30 53 42 66 14 15 19 30 15 46 -8 32 8 71
37 90 31 20 44 14 87 -40 19 -24 44 -47 55 -50 26 -9 104 -92 116 -123 5 -14
9 -61 8 -106 -1 -44 3 -97 9 -116 13 -37 74 -94 95 -87 7 2 17 -3 24 -12 10
-13 12 10 13 115 0 122 1 132 23 151 24 23 120 63 150 63 10 0 32 14 49 31
l31 30 -79 41 c-63 32 -82 38 -96 29 -23 -14 -55 -14 -64 0 -3 6 -20 9 -37 6
-34 -5 -135 23 -171 47 -13 8 -33 12 -45 9 -30 -8 -26 15 5 27 14 6 45 10 70
10 24 0 44 2 44 4 0 2 -7 17 -15 32 -38 74 -7 134 71 134 25 0 66 9 92 19 26
11 74 22 108 24 92 7 211 81 189 117 -8 13 -45 13 -45 0 0 -5 -5 -10 -11 -10
-6 0 -43 -13 -82 -29 -42 -16 -102 -31 -143 -34 -100 -9 -202 -49 -286 -110
-35 -26 -58 -16 -58 25 0 69 47 228 84 286 9 15 56 10 121 -13 26 -8 47 -10
63 -4 13 5 56 14 96 19 39 5 86 12 104 16 22 4 40 1 57 -10 l25 -16 0 38 c0
31 7 45 43 80 l43 42 91 0 c84 0 93 2 107 22 22 31 23 206 1 234 -8 10 -15 31
-15 47 0 26 -19 39 -21 15 -1 -7 -3 -24 -4 -38 -3 -42 -27 -144 -38 -165 -15
-30 -27 -35 -90 -35 -45 0 -68 6 -110 30 -29 16 -72 36 -96 45 -41 14 -45 14
-71 -5 -15 -11 -39 -20 -52 -20 -32 0 -77 37 -94 79 -17 41 -18 56 -1 73 15
16 47 65 47 73 0 3 -20 5 -45 5 -73 0 -166 28 -230 69 -22 14 -57 35 -77 45
-21 10 -40 26 -43 35 -3 9 -21 27 -41 40 -27 19 -47 24 -82 22 -26 -1 -49 -6
-52 -10 -16 -25 -55 -32 -143 -25 -87 6 -112 12 -147 33 -28 18 -88 41 -104
41 -9 0 -25 9 -36 20 -11 11 -24 20 -30 20 -5 0 -18 8 -28 18 -10 9 -33 28
-52 42 -46 34 -72 61 -122 133 -24 33 -58 76 -75 95 -18 19 -33 36 -33 38 0 3
-13 17 -29 33 -16 15 -32 38 -36 50 -4 13 -9 20 -12 17 -8 -8 -43 65 -43 89 0
12 7 30 15 41 8 10 15 38 15 61 l0 42 38 -6 c20 -3 50 -11 65 -19 19 -9 49
-11 97 -7 67 6 71 8 110 50 22 24 40 46 40 49 0 2 -10 4 -22 4 -21 1 -22 2 -5
14 18 14 25 86 7 86 -5 0 -9 6 -7 12 1 7 -8 14 -20 16 -13 2 -23 8 -23 13 0 5
-6 9 -12 8 -43 -5 -67 3 -74 24 -5 12 -7 25 -6 30 1 4 -5 7 -13 7 -8 0 -15 -4
-15 -10 0 -5 -6 -10 -14 -10 -9 0 -12 -7 -9 -19 4 -15 -2 -21 -29 -27 -18 -5
-50 -7 -70 -5 -23 2 -38 -2 -38 -8 0 -7 -10 -9 -25 -5 -14 3 -31 2 -38 -3 -6
-6 -40 -16 -75 -24 -55 -12 -62 -16 -58 -34 4 -16 -4 -24 -39 -40 l-45 -19 7
-121 c3 -66 9 -122 14 -125 4 -3 9 -21 11 -40 2 -27 8 -36 26 -38 14 -2 22
-10 22 -23 0 -10 4 -19 9 -19 15 0 31 -60 31 -120 0 -39 5 -62 15 -70 8 -7 15
-24 15 -39 0 -14 7 -51 16 -81 9 -30 20 -84 26 -120 5 -36 16 -72 24 -81 8 -8
14 -25 14 -36 0 -12 11 -41 25 -64 30 -53 32 -102 5 -136 -11 -15 -20 -41 -20
-60 0 -24 -10 -47 -30 -73 -23 -29 -32 -52 -36 -99 l-7 -61 42 0 c23 0 41 -5
41 -11 0 -7 10 -9 25 -5 22 6 25 3 25 -23 0 -33 27 -62 39 -43 10 16 41 5 41
-14 0 -8 10 -14 24 -14 25 0 67 -46 81 -90 4 -13 14 -30 21 -38 8 -7 14 -22
14 -31 0 -10 7 -24 15 -31 8 -7 15 -17 15 -22 0 -5 12 -20 27 -34 21 -19 27
-33 25 -62 -3 -80 -6 -92 -22 -86 -8 3 -41 8 -73 11 -41 4 -62 11 -70 23 -6
10 -16 16 -22 13 -7 -2 -15 3 -18 11 -4 9 -18 16 -34 16 -30 1 -65 25 -75 52
-4 10 -14 15 -25 12 -20 -5 -68 59 -58 76 4 6 -3 10 -14 10 -12 0 -21 5 -21
11 0 5 -4 7 -10 4 -5 -3 -10 3 -10 15 0 11 -4 28 -9 38 -5 9 -13 39 -18 67 -6
37 -13 51 -27 53 -10 2 -22 -2 -26 -8 -4 -7 -13 -9 -20 -5 -7 4 -36 8 -64 9
-44 1 -51 4 -54 22 -4 25 -33 34 -133 40 -66 3 -221 28 -249 39 -9 3 -23 22
-33 43 -10 20 -29 55 -42 77 -45 71 -47 82 -35 180 6 49 13 99 15 110 13 62
28 112 39 130 7 11 25 55 41 98 27 75 28 82 18 159 -9 65 -8 89 3 120 7 22 18
76 24 121 5 44 14 85 19 90 17 17 90 -4 136 -39 25 -19 45 -32 45 -28 0 3 11
-1 24 -9 27 -18 36 -13 36 17 0 12 11 33 24 47 57 61 77 137 102 389 3 36 8
74 11 85 2 11 9 54 15 95 13 92 23 120 65 181 18 27 33 53 33 58 0 17 111 121
152 142 23 12 54 30 68 40 24 17 119 40 245 60 154 23 447 6 620 -37 353 -86
471 -112 545 -120 36 -3 84 -13 108 -21 45 -15 88 -15 109 0 14 10 166 -36
211 -63 19 -12 34 -31 37 -47 3 -15 11 -45 16 -67 10 -37 11 -38 25 -17 8 11
22 21 31 21 43 0 103 99 103 171 0 31 25 91 58 136 27 38 28 55 2 78 -35 32
-27 82 22 132 l42 43 86 0 c101 0 165 19 204 59 15 16 42 70 62 127 l36 99 -5
142 c-6 161 -3 169 81 256 45 46 48 47 107 47 86 0 93 9 42 52 -53 44 -88 62
-153 78 -44 11 -56 11 -95 -4 -42 -16 -52 -27 -96 -102 -7 -12 -22 -57 -34
-100 -23 -85 -30 -246 -15 -335 14 -81 -23 -156 -91 -185 -45 -19 -70 -17 -93
6 -27 27 -27 133 1 249 27 116 85 343 104 411 8 30 15 76 15 102 0 26 4 49 9
53 5 3 12 20 16 38 3 17 13 61 22 97 9 36 13 77 10 92 -10 40 -93 124 -175
179 -41 27 -81 49 -89 49 -8 0 -28 9 -43 20 -16 11 -43 23 -62 27 -18 3 -50
20 -72 36 -32 26 -50 31 -112 37 -73 5 -76 7 -112 49 -34 39 -43 44 -112 56
-41 8 -109 24 -150 35 -264 74 -411 109 -680 164 -96 20 -224 47 -285 61 -60
14 -121 25 -135 25 -14 0 -58 9 -98 20 -39 11 -83 20 -98 20 -14 0 -69 11
-122 24 -53 14 -133 30 -177 37 -44 6 -100 15 -125 19 -163 29 -322 53 -360
54 -25 0 -51 5 -58 9 -19 12 -102 124 -192 255 l-35 52 -621 0 c-341 0 -624
-3 -627 -7z m2892 -2122 c95 -12 177 -24 182 -27 6 -3 38 -10 72 -14 35 -5 79
-16 98 -25 34 -15 34 -15 -31 -9 -36 3 -132 14 -215 24 -232 28 -247 29 -460
31 -118 1 -222 -3 -254 -10 -29 -6 -68 -10 -85 -10 -27 1 -25 3 14 11 25 5 68
15 95 23 54 16 81 18 280 23 87 2 188 -4 304 -17z m-1600 -809 c25 -21 58 -62
73 -91 15 -29 31 -58 36 -65 17 -23 33 -92 30 -131 l-3 -40 -35 68 c-19 38
-43 73 -53 79 -10 5 -45 36 -77 68 -67 67 -129 92 -218 89 -64 -3 -71 3 -35
27 66 43 76 45 157 40 74 -5 83 -8 125 -44z m-84 -292 c34 -13 28 -29 -18 -56
-44 -24 -71 -60 -133 -177 -25 -48 -52 -86 -58 -84 -7 2 -11 28 -10 64 1 95
56 199 129 244 34 21 53 23 90 9z m-305 -186 c-8 -42 -10 -98 -6 -149 7 -96
13 -118 32 -111 26 10 36 -33 32 -133 -5 -108 -21 -128 -50 -63 -9 20 -28 62
-42 92 -82 181 -103 250 -77 250 5 0 11 10 15 23 3 13 18 37 32 52 15 16 36
49 46 73 11 24 22 41 25 38 3 -3 0 -35 -7 -72z m240 -382 l75 -38 0 -55 0 -54
48 0 c63 0 76 -19 46 -70 -12 -19 -34 -42 -50 -51 -16 -8 -29 -20 -29 -27 0
-7 -12 -30 -26 -51 l-26 -39 -60 6 c-42 4 -67 12 -83 27 -19 18 -75 146 -81
187 -3 18 13 26 19 9 3 -7 27 -21 53 -30 26 -9 55 -23 64 -31 17 -15 50 -11
50 6 0 5 -24 34 -54 65 -59 62 -82 116 -66 158 13 35 32 33 120 -12z"/>
<path d="M12045 8618 c-11 -7 -54 -18 -95 -24 -41 -6 -100 -17 -130 -23 -30
-6 -113 -10 -185 -9 -96 2 -136 -1 -155 -12 -14 -7 -41 -17 -60 -21 -19 -4
-61 -17 -94 -28 -32 -11 -91 -25 -130 -30 -68 -8 -142 -41 -160 -70 -4 -5 -22
-15 -41 -21 -52 -17 -209 -124 -294 -199 -63 -57 -82 -67 -132 -78 -51 -10
-69 -21 -133 -78 -109 -98 -160 -168 -191 -260 -9 -27 -29 -62 -43 -77 -24
-26 -31 -28 -111 -28 -60 1 -92 5 -105 15 -17 13 -22 13 -42 0 -17 -11 -51
-15 -121 -15 -74 0 -108 -5 -138 -19 -51 -23 -63 -38 -114 -134 -37 -72 -41
-85 -41 -152 0 -41 4 -85 10 -100 26 -69 49 -328 58 -670 6 -220 12 -289 24
-320 9 -22 19 -61 22 -87 3 -25 14 -66 25 -90 10 -23 38 -92 62 -153 23 -60
62 -149 86 -197 24 -48 43 -89 43 -92 0 -12 71 -116 80 -116 4 0 14 15 20 34
17 52 49 89 65 76 10 -8 26 -5 64 14 54 28 100 33 133 15 11 -6 50 -20 86 -30
42 -12 85 -34 121 -62 31 -24 73 -53 94 -66 20 -12 37 -26 37 -30 0 -12 48
-31 79 -31 16 0 41 -10 56 -21 24 -20 35 -21 104 -16 141 11 301 65 404 136
68 46 215 196 223 225 5 19 15 29 36 33 43 9 28 28 -25 31 -39 3 -53 -2 -84
-27 -21 -16 -59 -35 -85 -41 -44 -11 -48 -11 -82 16 -20 16 -36 31 -36 34 0 3
12 17 25 33 16 18 34 27 54 27 20 0 34 7 41 20 13 25 66 27 91 4 14 -13 29
-15 63 -10 25 4 48 11 51 15 5 10 -42 21 -86 21 -49 0 -33 14 60 54 100 42
121 59 104 84 -13 22 -68 40 -168 57 -120 19 -326 86 -371 120 -18 14 -18 14
6 15 14 0 36 7 49 16 24 17 61 17 273 -2 59 -6 67 -4 77 14 11 21 1 73 -21 99
-17 20 -284 149 -328 158 -19 4 -60 15 -90 25 -30 9 -90 25 -134 36 -43 10
-85 25 -94 33 -15 16 -21 17 -88 27 -41 6 -42 5 -54 -30 -7 -21 -18 -36 -27
-36 -13 0 -15 11 -10 67 9 114 115 291 175 294 9 0 53 4 97 8 57 6 97 4 140
-6 33 -7 101 -22 150 -32 50 -11 140 -35 201 -54 130 -41 427 -87 570 -87 65
0 99 -25 108 -77 9 -50 25 -91 49 -126 18 -27 107 -293 107 -321 0 -7 16 -34
35 -59 19 -25 35 -50 35 -54 0 -5 53 -61 118 -125 l117 -117 101 -25 c129 -33
212 -69 223 -98 4 -13 11 -60 14 -105 5 -69 3 -94 -17 -161 -13 -44 -29 -88
-34 -98 -20 -38 -42 -100 -48 -139 -4 -22 -19 -67 -34 -101 -28 -62 -59 -189
-69 -283 -6 -52 -8 -55 -41 -64 -54 -14 -156 -126 -211 -233 -39 -75 -51 -90
-78 -98 -38 -11 -92 -70 -171 -186 -67 -99 -101 -136 -135 -144 -13 -3 -66
-29 -117 -58 -247 -136 -343 -186 -349 -182 -22 13 -44 82 -38 119 3 22 7 36
8 30 1 -5 6 -1 10 10 5 11 5 25 0 31 -11 13 80 101 155 149 58 38 146 117 146
133 0 5 27 37 60 71 33 33 66 73 74 88 8 16 35 60 60 98 25 39 46 75 46 80 0
6 13 37 29 70 72 147 87 206 96 370 5 97 -21 108 -100 45 -75 -60 -168 -124
-185 -128 -8 -2 -27 -4 -42 -3 -16 0 -28 -4 -28 -9 0 -12 -27 -13 -32 -2 -5
10 -93 52 -111 52 -9 0 -32 15 -51 33 -50 48 -147 105 -205 123 -27 8 -54 21
-60 28 -16 19 -90 58 -99 52 -4 -2 -28 -7 -53 -10 -58 -8 -151 -39 -193 -66
-18 -10 -57 -25 -87 -31 -30 -6 -65 -17 -79 -24 -14 -7 -43 -16 -65 -20 -47
-8 -96 -32 -112 -55 -6 -9 -30 -22 -52 -30 -23 -7 -46 -19 -52 -27 -20 -23
-44 -15 -56 20 -14 39 -22 81 -25 123 -1 20 -7 30 -14 27 -30 -11 -53 -138
-42 -233 5 -41 9 -85 10 -98 1 -30 61 -88 125 -119 29 -14 59 -33 67 -42 21
-24 31 -117 14 -127 -7 -5 -97 -9 -199 -9 l-186 0 -39 -27 c-22 -16 -51 -28
-65 -28 -33 0 -117 23 -155 43 -37 19 -83 77 -99 125 -7 19 -15 30 -19 24 -3
-5 -11 -53 -18 -107 l-12 -97 32 -29 c18 -16 41 -29 51 -29 10 0 32 -7 47 -15
16 -8 45 -15 65 -15 64 0 72 -20 73 -178 1 -114 4 -143 19 -165 9 -14 17 -35
17 -45 0 -19 11 -36 78 -123 34 -45 42 -92 21 -131 -11 -20 -10 -20 65 -13 96
9 99 -2 16 -76 -60 -54 -71 -69 -47 -69 7 0 34 -22 60 -48 l48 -49 10 -194
c13 -224 13 -355 4 -489 -5 -58 -3 -114 4 -145 6 -27 15 -88 21 -135 6 -47 15
-110 20 -140 6 -30 15 -93 21 -140 6 -47 18 -97 25 -112 20 -39 19 -363 -1
-398 -8 -14 -14 -38 -15 -54 0 -22 -18 -46 -75 -105 -69 -71 -87 -96 -146
-206 -12 -22 -38 -59 -58 -81 -50 -58 -151 -213 -151 -233 0 -3 -13 -31 -29
-61 -15 -30 -31 -66 -34 -80 -4 -14 -22 -44 -41 -66 -19 -22 -39 -59 -45 -81
-6 -23 -18 -54 -26 -70 -11 -21 -15 -64 -15 -163 0 -122 -3 -145 -31 -240 -17
-58 -35 -143 -40 -190 -4 -47 -11 -104 -15 -127 l-7 -43 305 0 305 0 18 118
c29 198 83 451 120 567 39 119 115 326 144 390 34 76 132 215 188 267 30 29
74 71 98 93 23 22 89 76 146 120 57 44 117 92 134 107 39 36 299 245 390 314
150 114 143 102 170 304 19 150 27 160 62 83 12 -27 46 -84 76 -128 63 -94 82
-102 148 -58 52 33 88 72 129 134 17 25 83 92 147 149 l116 103 18 -21 c18
-23 39 -29 39 -11 0 15 42 48 61 49 9 0 28 -9 41 -20 31 -24 38 -18 38 35 0
32 6 47 26 66 23 21 25 29 20 70 -6 44 5 125 24 179 5 14 11 72 14 130 4 95
10 119 45 205 31 73 42 106 51 150 6 28 23 70 37 95 110 190 143 257 180 372
32 99 38 109 70 125 41 21 69 84 98 218 20 90 40 129 60 121 14 -5 76 95 119
191 24 55 42 61 56 18 11 -32 15 -64 40 -310 42 -416 121 -728 237 -933 71
-125 73 -134 99 -320 8 -53 31 -52 83 4 25 28 54 65 64 83 l18 34 87 -84 c48
-47 113 -102 145 -123 31 -22 57 -43 57 -48 0 -5 -83 -92 -185 -194 l-185
-184 44 0 c37 0 45 3 50 23 8 34 79 71 122 64 23 -4 39 -1 49 9 19 19 95 10
95 -11 0 -22 19 -28 51 -15 27 11 34 21 30 43 -1 5 9 7 21 5 33 -4 35 -41 3
-58 -15 -8 -25 -22 -25 -36 0 -13 -5 -26 -10 -29 -18 -11 -90 6 -90 20 0 16
-18 22 -95 35 -102 17 -128 -24 -48 -75 33 -21 57 -28 81 -26 30 2 34 0 27
-16 -8 -18 -8 -26 -3 -73 3 -23 -1 -25 -41 -28 -24 -2 -54 -10 -66 -18 -25
-16 -35 -10 -35 22 0 19 -9 26 -52 39 -28 8 -59 15 -68 15 -20 0 -40 -20 -40
-40 1 -21 74 -100 94 -100 17 0 20 -5 30 -52 5 -22 -4 -36 -67 -100 -78 -79
-188 -170 -252 -209 l-40 -24 25 31 c14 16 48 48 76 70 82 62 246 224 229 224
-9 0 -43 -19 -75 -42 -54 -37 -62 -40 -85 -30 -14 7 -37 9 -49 6 -13 -3 -27
-1 -30 5 -9 14 -46 15 -46 1 0 -5 8 -13 18 -19 18 -10 25 -61 7 -61 -21 0 -75
40 -75 56 0 10 19 34 42 56 l42 38 -22 16 c-33 23 -29 54 6 54 32 0 52 -16 52
-42 0 -26 42 -86 64 -92 26 -7 61 9 80 36 22 31 20 38 -12 38 -46 0 -81 50
-46 64 15 6 15 9 -5 29 -30 33 -26 65 13 102 l35 32 -24 13 c-30 16 -51 2
-205 -131 -58 -50 -150 -122 -205 -161 -55 -39 -118 -83 -140 -99 -22 -16 -56
-41 -75 -54 -236 -165 -397 -285 -444 -328 -13 -12 -58 -49 -101 -82 -43 -33
-107 -86 -144 -118 -36 -33 -82 -66 -101 -75 -19 -9 -57 -33 -85 -53 -27 -20
-111 -70 -185 -111 -109 -61 -297 -184 -426 -278 -46 -33 -185 -139 -221 -169
-21 -17 -58 -47 -83 -67 -25 -20 -52 -48 -61 -61 -9 -14 -26 -37 -38 -52 -12
-14 -40 -51 -63 -81 l-42 -54 -3 -218 -4 -218 295 0 c199 0 296 3 296 10 0 6
19 61 41 123 48 127 72 159 169 219 97 59 123 78 270 201 74 62 161 132 193
156 96 70 421 411 522 546 55 73 389 400 460 450 39 27 80 57 93 68 12 11 22
15 22 9 0 -6 -8 -16 -19 -21 -10 -6 -34 -34 -52 -63 -43 -67 -121 -151 -179
-190 -65 -45 -136 -113 -202 -193 -127 -154 -253 -289 -458 -495 -97 -97 -138
-132 -196 -169 -22 -14 -81 -63 -130 -108 -89 -82 -191 -158 -324 -243 -83
-53 -110 -85 -135 -160 -9 -30 -24 -67 -31 -82 -8 -14 -14 -33 -14 -42 0 -15
178 -16 2053 -14 l2052 3 0 1425 0 1424 -59 18 c-33 10 -64 22 -70 26 -6 5
-39 19 -74 31 -35 12 -79 33 -99 46 -19 13 -60 34 -91 45 -61 23 -122 23 -227
0 -85 -19 -138 -29 -193 -38 -29 -5 -58 -14 -64 -20 -14 -14 -64 -16 -73 -3
-3 5 -26 21 -52 35 -50 29 -73 23 -54 -12 24 -44 7 -92 -31 -92 -18 0 -18 -1
1 -27 21 -30 36 -73 26 -73 -3 0 -23 9 -44 19 -46 24 -78 68 -62 84 17 17 13
26 -21 47 -69 42 -90 16 -33 -40 47 -46 46 -83 -3 -88 -19 -2 -41 0 -50 4 -14
5 -12 8 8 13 42 11 36 39 -21 97 -60 60 -84 66 -119 29 -13 -14 -31 -25 -40
-25 -9 0 -21 -5 -27 -11 -8 -8 -13 -8 -17 0 -4 6 -31 11 -60 11 -48 0 -55 3
-93 43 -35 36 -41 50 -47 100 -3 31 -13 75 -22 97 -14 35 -16 89 -13 418 3
312 7 382 18 396 9 11 18 55 23 109 12 147 22 189 79 342 21 56 23 82 29 365
3 168 10 314 15 325 5 11 35 52 68 90 32 39 78 99 101 135 24 36 51 71 59 79
9 7 19 29 23 49 4 19 13 47 20 61 8 14 14 40 14 58 0 17 4 34 9 37 5 3 16 41
26 83 9 43 23 96 31 118 46 142 44 215 -17 405 -38 121 -43 148 -48 267 -5
116 -9 134 -27 155 -12 13 -25 34 -29 48 -4 14 -13 32 -20 40 -12 14 -46 119
-90 280 -15 55 -28 75 -80 130 -58 60 -143 170 -190 246 -11 18 -40 58 -65 91
-25 32 -52 70 -60 85 -27 49 -180 207 -218 225 -20 10 -55 36 -77 58 -22 22
-49 47 -60 55 -18 13 -18 12 1 -10 312 -364 319 -372 310 -395 -8 -22 -25 -18
-35 8 -22 53 -209 260 -229 252 -9 -3 -11 1 -8 13 5 13 -10 34 -54 75 -33 30
-60 50 -60 42 0 -31 -22 -23 -72 25 -54 52 -225 146 -250 138 -7 -3 30 -33 82
-67 89 -59 114 -80 105 -89 -2 -2 -86 38 -187 89 -101 50 -214 100 -253 111
-38 10 -113 30 -165 44 -99 27 -255 48 -473 63 -71 5 -131 12 -134 15 -4 3 77
6 178 7 101 1 211 4 244 8 l60 7 -52 23 c-29 13 -53 30 -53 37 0 9 -11 14 -31
14 -17 0 -40 5 -51 11 -32 17 -217 39 -270 32 -29 -3 -48 -2 -48 4 0 10 93 22
190 24 112 2 111 14 -5 33 -60 9 -114 23 -120 30 -5 7 -19 16 -30 20 -25 10
-17 13 68 21 37 4 67 10 67 15 0 4 -10 8 -23 8 -12 0 -45 10 -72 22 -44 20
-70 23 -210 27 -120 3 -165 1 -180 -9z m495 -449 c52 -5 158 -13 235 -18 125
-8 159 -14 315 -60 96 -28 209 -60 250 -72 41 -11 84 -26 95 -32 38 -20 70
-36 115 -54 24 -10 67 -39 94 -65 27 -27 54 -48 61 -48 21 0 137 -98 240 -204
55 -56 134 -129 176 -163 42 -34 90 -79 105 -100 16 -21 39 -48 51 -60 23 -22
30 -43 15 -43 -5 0 -17 10 -28 21 -66 74 -387 342 -508 424 -91 62 -325 180
-376 189 l-35 7 35 -17 c19 -9 62 -29 96 -45 33 -16 89 -50 125 -77 35 -26 84
-60 109 -74 79 -47 307 -234 297 -245 -7 -6 -47 20 -152 101 -164 128 -351
240 -491 295 -133 52 -226 76 -444 112 -117 20 -149 21 -515 15 -214 -3 -441
-9 -502 -12 -80 -4 -113 -3 -113 5 0 6 8 11 18 12 24 1 58 6 129 18 97 18 431
30 670 24 152 -4 215 -2 208 5 -18 18 -197 32 -422 32 -203 0 -666 -22 -777
-36 -30 -4 -46 -3 -43 3 4 6 46 15 94 22 311 41 618 60 926 56 103 -1 185 0
183 2 -22 22 -498 56 -753 54 -48 0 -83 3 -83 9 0 6 15 10 33 11 17 1 43 5 57
9 34 11 394 10 510 -1z m767 -393 c78 -28 362 -164 397 -191 39 -30 7 -24 -58
11 -38 20 -98 47 -135 60 -145 54 -291 117 -291 125 0 13 43 11 87 -5z m-3007
-657 c0 -46 -4 -55 -41 -92 -34 -35 -38 -43 -22 -46 27 -5 32 -20 26 -75 -3
-35 -16 -67 -38 -101 -27 -40 -34 -60 -33 -98 0 -27 -3 -70 -7 -96 -6 -46 -5
-49 20 -55 20 -5 25 -11 20 -26 -5 -15 -2 -20 12 -21 17 -1 17 -2 0 -6 -9 -2
-14 -9 -11 -14 3 -6 -3 -13 -15 -16 -11 -3 -23 -13 -26 -23 -3 -11 -17 -20
-32 -22 -20 -2 -29 -11 -35 -33 -4 -16 -14 -35 -22 -41 -19 -13 -92 -182 -111
-254 -8 -30 -15 -81 -16 -112 -3 -83 -14 -92 -41 -33 -21 45 -23 64 -23 200 1
177 11 229 69 350 102 212 124 263 131 310 7 54 49 141 71 149 8 3 14 20 14
40 0 20 8 57 18 83 11 26 22 56 25 66 4 11 17 17 37 17 29 0 30 -1 30 -51z
m3695 -279 c16 -6 51 -27 77 -46 26 -18 53 -34 59 -34 5 0 7 -4 4 -10 -3 -5
29 -26 71 -46 78 -36 198 -119 219 -152 6 -9 16 -30 23 -45 12 -27 11 -28 -10
-21 -13 4 -39 19 -58 34 -37 30 -178 98 -245 120 -62 20 -116 46 -109 53 7 7
-61 42 -101 51 -27 7 -116 44 -155 65 -9 5 -30 12 -47 15 -17 4 -37 14 -44 22
-11 14 -8 15 27 9 83 -14 143 -29 241 -62 57 -19 108 -33 114 -31 6 2 -20 18
-58 36 -39 18 -83 43 -99 57 l-28 24 44 -13 c25 -8 58 -19 75 -26z m100 -257
c129 -31 221 -66 278 -103 33 -22 68 -40 78 -40 15 0 74 -78 65 -87 -1 -2 -43
21 -93 51 -88 53 -194 96 -239 96 -37 0 -158 41 -180 61 -11 10 -28 19 -36 19
-26 0 -48 11 -42 21 7 11 85 3 169 -18z m-832 -890 c14 -48 15 -48 55 -45 59
5 114 -13 147 -48 25 -26 30 -39 28 -77 -1 -25 -6 -50 -11 -55 -13 -13 -136
18 -179 44 -18 11 -37 17 -41 14 -5 -3 -7 -39 -4 -81 4 -66 2 -78 -14 -90 -11
-7 -22 -11 -26 -7 -4 4 -16 41 -27 82 -15 54 -21 104 -21 183 0 102 1 108 23
117 45 18 56 12 70 -37z m-2393 22 c41 -21 40 -70 -2 -152 -27 -53 -34 -60
-50 -52 -10 5 -18 13 -18 17 0 5 -9 18 -21 30 -25 28 -49 83 -49 116 0 26 16
36 60 36 16 0 32 5 35 10 8 13 11 13 45 -5z m2723 -60 c9 -8 20 -30 27 -49 10
-33 13 -34 48 -29 22 3 51 19 72 37 38 35 86 59 100 51 5 -3 12 -21 15 -39 8
-39 -6 -71 -71 -163 -24 -34 -44 -64 -44 -68 0 -4 -14 -27 -31 -52 -18 -25
-45 -80 -61 -121 -78 -204 -135 -267 -237 -267 -41 1 -67 7 -96 24 -58 35 -73
58 -86 133 -12 64 -11 69 17 138 34 83 53 97 143 107 58 6 61 5 72 -21 16 -35
29 -29 57 24 22 42 23 54 19 167 -4 120 1 143 29 143 7 0 19 -7 27 -15z
m-2897 -1172 c22 -27 52 -61 69 -77 l30 -28 -70 6 c-38 4 -88 12 -110 17 -22
6 -59 8 -82 5 -26 -3 -43 -2 -43 4 0 6 4 10 10 10 5 0 15 11 22 24 18 34 86
86 113 86 15 0 36 -16 61 -47z m4654 -1483 c13 -8 13 -9 0 -13 -8 -3 -35 -12
-60 -20 -25 -8 -58 -18 -74 -22 -16 -3 -58 -35 -95 -70 -59 -56 -181 -132
-268 -166 -38 -14 -36 9 1 28 91 46 176 104 242 165 47 44 86 70 111 77 21 5
54 14 73 19 46 13 52 13 70 2z m-1740 -1000 c11 -6 17 -17 14 -25 -9 -21 -61
-33 -125 -27 -59 4 -99 -9 -99 -33 0 -28 45 -84 68 -85 32 0 27 -20 -8 -33
-22 -9 -30 -18 -30 -37 0 -38 -10 -47 -62 -54 -44 -7 -48 -6 -48 14 0 14 -13
27 -46 42 -42 21 -47 21 -72 7 -25 -14 -27 -20 -25 -74 1 -32 8 -72 14 -88 11
-26 10 -31 -6 -43 -27 -20 -42 -17 -48 7 -4 15 -11 19 -26 14 -14 -4 -23 0
-30 14 -16 30 -13 41 13 51 21 8 24 15 23 54 -2 53 25 89 82 107 53 17 53 17
16 51 -19 16 -35 34 -35 38 0 13 77 21 105 10 35 -13 42 -37 17 -63 -21 -22
-21 -23 -2 -35 26 -16 59 -15 66 2 3 8 -2 29 -11 46 -24 46 -13 75 41 106 39
23 53 26 104 21 44 -4 62 -1 71 9 14 17 15 17 39 4z m-914 -612 c-4 -16 0 -28
13 -38 27 -21 30 -50 6 -64 -30 -16 -35 -27 -35 -71 0 -110 -117 -189 -170
-115 -42 58 -79 23 -59 -55 l12 -46 21 20 c29 27 50 26 78 -2 44 -44 75 -107
52 -107 -27 0 -94 28 -116 48 -15 14 -29 24 -31 21 -2 -2 -11 -22 -21 -45 -22
-51 -65 -78 -111 -70 -18 4 -38 13 -45 21 -17 21 -38 19 -45 -5 -8 -24 -28
-26 -45 -5 -7 8 -19 15 -26 15 -19 0 -18 29 2 51 16 17 15 19 -11 29 -38 14
-108 -18 -135 -62 -25 -39 -20 -91 12 -125 25 -26 114 -41 146 -24 18 10 26 7
53 -17 40 -36 32 -52 -25 -52 -30 0 -48 6 -61 20 -24 27 -31 25 -38 -9 -3 -16
-17 -41 -30 -56 -29 -35 -52 -26 -43 17 5 24 2 30 -19 38 -28 11 -32 25 -10
34 23 8 18 31 -9 44 -33 15 -44 88 -20 133 20 40 66 80 108 95 24 9 31 18 31
38 1 15 11 36 22 48 l22 21 32 -33 33 -32 -23 -17 -22 -17 30 -22 c17 -12 32
-22 35 -22 3 0 22 -11 42 -25 42 -29 76 -32 98 -9 19 19 20 60 4 131 -12 51
-14 53 -46 53 -41 0 -39 16 5 45 25 16 31 27 32 55 0 46 14 93 29 98 6 2 21
-13 33 -33 18 -30 26 -35 45 -31 32 8 32 -19 2 -36 -13 -7 -25 -13 -28 -13 -3
0 -20 -6 -38 -14 -23 -10 -30 -17 -23 -24 8 -8 15 -7 23 1 21 21 52 13 93 -23
56 -49 86 -46 110 11 15 36 21 170 10 222 -7 31 -6 32 25 32 29 0 32 -3 26
-22z m-774 -649 c-10 -91 -23 -126 -64 -162 -22 -19 -37 -25 -52 -21 -59 18
-47 49 75 192 24 28 45 24 41 -9z m-245 -101 c68 -29 76 -56 44 -146 -30 -86
-117 -131 -173 -89 -28 21 -68 86 -68 111 0 7 -9 25 -21 40 -18 23 -19 29 -7
53 12 25 19 28 60 28 25 0 50 3 54 8 11 11 80 8 111 -5z m213 -200 c5 -24 14
-56 20 -72 5 -16 7 -32 5 -36 -2 -4 -37 -10 -76 -14 -83 -7 -113 5 -124 52
-14 66 35 111 122 112 41 0 42 -1 53 -42z"/>
<path d="M6929 5688 c-11 -10 -86 -13 -344 -13 -323 0 -331 0 -373 -22 -23
-13 -57 -23 -75 -23 -34 -1 -85 -38 -106 -78 -11 -20 -8 -29 24 -71 39 -54 51
-61 100 -61 24 0 37 -7 49 -25 16 -24 21 -25 104 -23 99 3 240 -11 248 -23 6
-11 25 -12 22 -1 -3 8 5 12 25 12 33 0 53 -182 21 -194 -8 -3 -28 1 -44 9 -38
20 -60 19 -80 -2 -15 -16 -15 -22 -1 -58 34 -92 100 -124 126 -61 8 19 19 37
24 41 6 3 43 -22 83 -55 40 -33 78 -58 86 -55 7 2 61 12 120 21 143 21 236 67
300 147 6 9 17 40 23 69 14 65 24 78 59 78 15 0 38 9 51 19 l24 20 -22 -6
c-20 -5 -23 -1 -23 25 0 45 -14 72 -62 122 -100 104 -207 180 -281 201 -21 5
-44 12 -51 15 -8 3 -20 -1 -27 -8z"/>
<path d="M3812 3210 c16 -24 14 -26 -69 -59 -68 -28 -82 -45 -52 -64 11 -7 45
0 120 25 82 28 104 39 104 54 0 22 -59 64 -92 64 -20 0 -22 -2 -11 -20z"/>
<path d="M4050 3062 c0 -5 14 -18 30 -30 17 -13 30 -28 30 -34 0 -6 -21 -35
-47 -66 -37 -43 -44 -58 -36 -71 19 -30 43 -23 100 29 32 28 63 49 70 48 18
-4 162 -111 167 -125 4 -10 -2 -37 -36 -170 -10 -37 -9 -45 7 -63 34 -38 51
-26 71 48 32 123 39 126 129 47 l63 -55 6 -83 c13 -194 14 -237 6 -237 -5 0
-24 15 -42 33 -117 118 -444 394 -454 384 -2 -2 11 -16 31 -31 20 -15 60 -51
90 -80 61 -59 62 -63 43 -178 l-11 -71 31 -29 c18 -15 36 -28 41 -28 5 0 12
34 16 75 6 59 11 75 23 75 9 0 66 -51 127 -113 l112 -112 6 -124 c4 -68 6
-126 4 -128 -2 -1 -82 75 -178 170 -96 95 -201 195 -233 222 -33 28 -71 60
-84 73 -14 12 -29 22 -34 22 -4 0 26 -33 68 -74 l77 -74 -6 -53 c-3 -30 -11
-100 -18 -156 -13 -102 -13 -103 11 -128 13 -14 29 -25 36 -25 7 0 18 43 30
122 14 92 23 123 34 126 9 1 39 -21 67 -50 114 -118 177 -185 209 -224 l34
-40 10 -180 c7 -98 13 -194 14 -212 3 -30 49 -93 60 -81 2 2 0 54 -4 114 -13
168 -12 265 3 265 11 0 267 -261 332 -338 16 -20 30 -52 36 -89 12 -68 48
-339 58 -433 4 -36 12 -74 18 -86 15 -26 42 -49 49 -41 6 6 -13 164 -54 449
-12 83 -2 91 50 37 284 -294 268 -275 268 -316 0 -21 7 -65 14 -98 8 -33 19
-99 25 -146 6 -47 20 -132 31 -190 11 -57 20 -120 20 -139 0 -74 46 -168 70
-144 8 8 -5 101 -49 345 -33 184 -58 335 -56 337 7 8 37 -16 134 -110 74 -72
101 -105 101 -122 0 -14 8 -60 18 -103 11 -43 36 -185 58 -315 l39 -238 38 0
c47 0 47 8 8 161 -16 63 -32 134 -36 159 -4 25 -13 67 -21 93 -7 27 -18 76
-24 110 -6 34 -13 70 -16 80 -9 30 16 18 87 -43 38 -33 74 -60 79 -60 5 0 12
-17 16 -38 4 -20 11 -42 16 -49 5 -7 7 -17 3 -22 -3 -6 1 -34 10 -63 20 -69
19 -79 -6 -41 -11 18 -23 57 -26 88 -3 30 -9 55 -13 55 -4 0 -12 12 -19 27 -9
19 -15 23 -23 15 -8 -8 -6 -26 10 -65 11 -30 17 -59 12 -66 -5 -10 -9 -10 -14
-2 -12 19 -26 2 -26 -32 0 -18 7 -54 15 -81 8 -27 15 -69 15 -92 0 -24 5 -64
12 -89 l12 -45 98 0 c54 0 98 4 98 9 0 5 -25 107 -55 227 -45 175 -54 224 -45
242 15 35 13 40 -30 67 -33 21 -40 31 -40 58 0 18 -11 52 -24 77 -13 25 -27
56 -31 70 -4 14 -19 54 -35 90 -60 143 -90 216 -99 245 -5 17 -12 39 -17 50
-8 19 -7 19 27 -1 62 -37 97 -45 114 -27 14 14 14 17 -1 34 -9 11 -21 19 -26
19 -39 0 -214 108 -199 123 12 12 10 17 -59 163 -32 66 -61 131 -65 144 -4 13
-43 94 -86 181 -90 181 -99 215 -45 174 14 -11 23 -12 33 -4 31 27 21 36 -133
115 -56 29 -130 73 -165 98 -35 25 -79 55 -98 68 -18 13 -52 39 -75 59 -22 19
-79 64 -126 99 -112 84 -276 214 -320 254 -19 17 -57 47 -84 66 -26 19 -63 49
-80 65 -18 17 -58 48 -90 70 -31 22 -78 56 -104 75 -50 38 -165 110 -176 110
-3 0 -6 -4 -6 -8z m729 -594 c71 -54 79 -68 95 -163 3 -16 19 -95 35 -174 17
-80 28 -147 25 -150 -3 -3 -59 49 -126 116 -119 121 -120 123 -114 160 4 21 0
72 -7 113 -16 91 -12 164 10 156 8 -3 45 -29 82 -58z m220 -174 c52 -39 59
-49 91 -149 15 -49 56 -166 89 -259 34 -93 61 -176 61 -185 -1 -10 -21 5 -53
39 -29 30 -83 82 -120 114 -55 48 -67 64 -63 82 7 26 -18 214 -39 295 -16 62
-19 89 -8 89 3 0 22 -12 42 -26z m191 -139 c22 -11 35 -33 60 -97 18 -46 42
-103 55 -128 12 -25 52 -119 88 -210 36 -91 73 -183 82 -205 19 -45 26 -48
-75 34 -75 60 -97 87 -98 121 0 16 -5 37 -11 48 -20 37 -143 452 -134 452 2 0
17 -7 33 -15z m-352 -150 c84 -82 132 -135 135 -153 4 -15 13 -58 22 -97 39
-178 44 -209 39 -214 -3 -3 -11 2 -18 12 -11 14 -244 263 -320 340 -15 16 -16
23 -6 41 7 14 10 55 8 109 -2 48 0 87 4 87 3 0 65 -56 136 -125z m514 48 c10
-9 18 -19 18 -23 0 -4 38 -87 85 -184 47 -97 85 -179 85 -182 0 -3 29 -66 65
-139 58 -120 75 -165 60 -165 -4 0 -62 36 -103 66 -16 11 -22 23 -18 37 3 11
-7 44 -24 78 -16 31 -38 79 -49 106 -10 26 -51 129 -90 227 -39 99 -71 183
-71 188 0 13 22 9 42 -9z m-141 -405 l76 -73 37 -120 c21 -66 52 -164 71 -217
19 -54 30 -98 26 -98 -5 0 -81 76 -170 169 -146 153 -160 171 -156 197 3 16
-5 79 -18 139 -13 61 -22 116 -19 123 5 15 48 -18 153 -120z m229 -195 c68
-47 99 -78 105 -104 4 -15 20 -63 37 -106 17 -43 34 -91 38 -108 8 -29 65
-189 89 -247 6 -16 6 -28 2 -28 -5 0 -57 46 -116 102 -87 84 -105 106 -101
125 4 12 -5 52 -20 90 -14 37 -36 109 -50 158 -14 50 -32 100 -40 112 -8 12
-14 30 -14 39 0 15 2 15 23 0 12 -9 33 -24 47 -33z m242 -175 c58 -38 54 -30
181 -353 20 -49 52 -128 71 -174 20 -47 34 -87 31 -89 -2 -3 -13 1 -23 9 -165
123 -174 131 -166 164 3 13 -3 40 -13 61 -11 22 -25 59 -32 84 -7 25 -30 90
-51 145 -58 153 -67 185 -54 185 3 0 29 -14 56 -32z"/>
<path d="M3820 2683 c0 -9 -18 -43 -40 -74 -52 -74 -60 -111 -30 -132 12 -9
27 -13 34 -11 6 2 29 32 51 67 22 34 44 65 50 69 19 14 47 -1 123 -63 6 -5 12
-6 12 -1 0 16 -173 162 -191 162 -5 0 -9 -8 -9 -17z"/>
<path d="M460 2673 c-13 -9 -42 -20 -64 -24 -116 -22 -142 -31 -171 -58 -16
-17 -50 -39 -75 -51 -25 -12 -60 -29 -78 -38 l-32 -16 0 -418 c0 -287 3 -418
11 -418 5 0 7 5 4 10 -3 6 0 10 7 10 7 0 22 13 33 30 11 16 30 32 43 35 16 4
22 11 18 20 -3 8 -2 15 2 15 4 0 16 14 27 30 11 16 24 30 29 30 5 0 37 20 72
45 34 25 71 45 82 45 19 0 219 -161 253 -204 11 -14 50 -47 87 -74 73 -54 262
-237 356 -346 32 -37 78 -86 102 -108 24 -22 86 -95 138 -161 52 -67 124 -153
161 -192 71 -74 215 -261 215 -279 0 -6 28 -40 61 -76 76 -81 91 -114 84 -184
-4 -43 -11 -61 -36 -85 -17 -17 -34 -31 -39 -31 -4 0 -10 -10 -13 -22 -4 -12
-9 -19 -13 -16 -7 8 -27 -9 -37 -32 -4 -8 -14 -25 -23 -38 l-16 -22 814 0 815
0 -4 28 c-6 39 -25 105 -35 118 -5 7 -21 14 -36 17 -29 6 -143 89 -143 104 0
4 -6 15 -12 23 -49 62 -53 105 -11 141 27 23 50 30 129 39 69 8 70 8 116 -25
89 -66 164 -162 260 -332 l63 -113 112 0 113 0 -9 28 c-17 58 -324 687 -340
697 -4 3 -11 17 -15 32 -11 47 -87 159 -157 231 -25 26 -105 52 -160 52 -54 0
-132 -24 -243 -75 -27 -13 -61 -28 -75 -34 -14 -6 -32 -15 -40 -20 -43 -27
-137 -61 -170 -61 -27 0 -41 -6 -51 -21 -18 -26 -84 -36 -141 -21 -88 23 -111
25 -106 11 3 -8 13 -16 24 -17 10 -2 24 -9 29 -14 31 -32 -297 38 -340 72 -6
5 -35 18 -65 30 -99 38 -140 60 -140 74 0 8 6 16 13 19 20 6 -11 37 -39 37
-13 0 -27 6 -31 14 -4 8 -33 31 -63 52 -94 64 -140 107 -140 130 0 21 -28 54
-46 54 -5 0 -31 20 -58 45 -41 38 -46 47 -36 60 11 13 10 18 -6 30 -10 8 -22
15 -25 15 -3 0 -17 9 -30 21 -13 12 -37 33 -54 47 -20 17 -26 27 -17 30 8 2
-10 25 -46 58 -33 30 -76 78 -96 108 -19 29 -51 69 -71 89 -19 19 -35 41 -35
49 0 8 -14 27 -31 44 -17 16 -40 46 -51 67 -10 21 -35 53 -55 70 -20 18 -42
46 -49 63 -7 17 -40 59 -73 94 -33 35 -73 81 -88 104 -15 23 -33 44 -40 49 -7
4 -21 24 -33 45 -12 21 -35 47 -51 57 -16 11 -32 30 -35 43 -4 12 -17 25 -29
28 -13 3 -31 14 -41 25 -9 10 -26 19 -36 19 -30 0 -35 31 -7 52 13 10 29 22
36 28 7 5 20 10 30 11 10 0 27 4 38 9 16 7 14 9 -15 9 -20 1 -46 -7 -60 -16z"/>
<path d="M11025 1240 c-16 -11 -38 -20 -47 -20 -31 0 -86 -62 -98 -110 -25
-97 -24 -99 5 -110 29 -11 88 -13 120 -4 24 7 105 102 122 144 16 38 -6 96
-43 110 -31 12 -24 13 -59 -10z"/>
<path d="M40 210 c0 -150 0 -150 20 -130 11 11 25 20 30 20 14 0 13 -23 -2
-38 -9 -9 53 -12 272 -12 155 0 281 2 279 4 -2 2 -53 22 -114 44 -228 84 -299
114 -322 132 l-24 19 38 -5 c94 -13 308 -72 398 -109 45 -19 241 -85 251 -85
5 0 -14 11 -42 24 -28 13 -54 29 -58 34 -3 6 -21 14 -39 17 -40 9 -113 34
-237 81 -52 19 -133 49 -180 64 -47 16 -122 43 -168 60 -46 16 -88 30 -93 30
-5 0 -9 -64 -9 -150z"/>
</g>
</svg>
