<?xml version="1.0" standalone="no"?>
<!DOCTYPE svg PUBLIC "-//W3C//DTD SVG 20010904//EN"
 "http://www.w3.org/TR/2001/REC-SVG-20010904/DTD/svg10.dtd">
<svg version="1.0" xmlns="http://www.w3.org/2000/svg"
 width="167.000000pt" height="150.000000pt" viewBox="0 0 167.000000 150.000000"
 preserveAspectRatio="xMidYMid meet">
<metadata>
Created by potrace 1.11, written by Peter Selinger 2001-2013
</metadata>
<g transform="translate(0.000000,150.000000) scale(0.100000,-0.100000)"
fill="#000000" stroke="none">
<path d="M0 750 l0 -750 835 0 835 0 0 750 0 750 -835 0 -835 0 0 -750z m398
460 c-15 -30 -23 -68 -26 -127 -8 -151 53 -272 156 -313 39 -15 49 -8 54 40
l3 35 -55 5 c-54 5 -55 6 -53 35 1 17 3 64 5 106 2 61 6 75 17 71 11 -4 13 3
8 39 -5 38 -4 41 7 26 12 -15 15 -15 26 -2 7 8 9 22 6 31 -5 12 -2 15 10 10
10 -4 18 0 21 13 4 16 11 18 39 14 23 -4 42 0 60 12 25 16 28 16 60 -1 43 -23
44 -36 2 -32 -23 2 -32 -1 -34 -14 -1 -10 2 -20 7 -24 21 -12 7 -24 -29 -24
-26 0 -45 7 -57 20 -10 11 -21 20 -25 20 -12 0 -98 -183 -109 -229 -11 -51 -6
-66 18 -55 9 4 45 10 81 13 l65 6 -3 50 c-3 45 -2 48 11 31 14 -19 43 -14 32
5 -6 9 15 13 43 10 8 -1 19 3 27 9 10 8 18 4 33 -17 17 -22 23 -26 33 -15 22
21 27 14 19 -25 -5 -20 -7 -41 -4 -45 3 -4 30 -8 60 -8 31 0 65 -5 76 -11 55
-29 41 62 -30 191 -50 93 -51 94 -73 74 -32 -28 -21 0 11 31 23 22 30 25 30
12 0 -25 22 -32 37 -11 14 18 14 17 8 -13 -7 -36 8 -52 25 -26 8 14 9 10 4
-19 -6 -38 3 -69 15 -50 3 6 7 -20 9 -56 2 -37 4 -85 5 -107 l2 -40 -55 -5
-55 -5 3 -35 c2 -19 7 -39 11 -43 16 -16 63 6 112 52 70 65 93 133 87 256 -4
62 -12 105 -26 138 -11 26 -17 47 -12 47 4 0 10 -3 12 -7 2 -5 19 -16 38 -26
19 -10 48 -29 63 -42 l28 -25 -19 -37 c-10 -21 -27 -68 -36 -105 -10 -37 -33
-93 -52 -123 -30 -50 -36 -85 -14 -85 5 0 27 21 49 46 38 43 66 93 104 187 9
20 21 37 26 37 6 0 11 -2 11 -4 0 -2 11 -28 24 -58 l24 -55 -55 -62 c-61 -68
-128 -113 -163 -109 -17 2 -25 -4 -33 -27 -6 -16 -25 -48 -44 -71 -18 -23 -33
-46 -33 -52 0 -10 65 -66 135 -117 l28 -21 -44 -26 -44 -26 -43 69 c-44 70
-58 81 -69 54 -7 -19 22 -99 43 -115 22 -19 17 -27 -23 -37 -37 -9 -38 -10
-35 -50 4 -48 -21 -104 -67 -147 -35 -34 -40 -27 -12 13 33 46 62 133 50 148
-16 18 -37 16 -66 -7 -37 -29 -193 -29 -241 0 -38 23 -55 25 -71 7 -19 -24 56
-186 80 -172 5 4 9 1 9 -4 0 -21 -26 -11 -58 21 -39 42 -64 101 -60 145 3 37
-12 53 -49 53 -20 0 -20 2 13 68 43 85 43 103 -2 137 -23 17 -48 52 -66 91
-28 61 -36 69 -65 65 -24 -3 -101 50 -157 109 l-56 59 25 57 c14 31 25 59 25
62 0 3 9 -3 20 -13 11 -10 20 -22 20 -27 0 -5 17 -42 37 -83 42 -86 96 -146
115 -127 8 8 4 25 -20 69 -17 32 -42 98 -56 146 -14 48 -30 95 -35 106 -8 14
-4 22 21 41 37 27 111 70 115 66 1 -1 -7 -22 -19 -46z m959 -412 c-4 -31 -13
-58 -23 -65 -24 -18 -155 -37 -173 -26 -9 6 -16 14 -16 19 0 8 6 12 107 60 32
15 65 35 74 46 29 31 37 22 31 -34z m-1148 7 c30 -19 76 -42 103 -51 45 -15
61 -35 37 -49 -11 -7 -171 14 -187 24 -11 8 -25 111 -15 111 4 0 32 -16 62
-35z m160 -391 c27 -34 26 -52 -4 -125 -45 -105 -21 -215 34 -165 12 11 21 31
21 46 0 57 13 92 37 103 45 20 57 1 63 -97 3 -47 2 -86 -1 -86 -4 0 -10 36
-13 80 -4 44 -12 82 -17 86 -21 13 -37 -19 -41 -82 -5 -76 -20 -94 -78 -94
-63 0 -72 20 -83 178 -5 76 -14 143 -20 151 -10 11 -8 13 11 7 16 -5 24 -3 28
8 9 24 40 19 63 -10z m829 14 c-2 -8 6 -12 21 -10 18 2 21 -1 13 -10 -6 -7
-14 -75 -19 -150 -11 -161 -19 -178 -88 -178 -55 0 -68 17 -73 96 -3 38 -10
68 -19 75 -23 20 -35 -3 -42 -80 -9 -99 -19 -98 -13 1 5 93 14 110 51 106 32
-4 51 -39 51 -94 0 -28 6 -47 21 -60 56 -51 79 60 34 167 -40 94 -23 146 48
148 9 1 16 -5 15 -11z"/>
</g>
</svg>
